<svg width="29" height="29" viewBox="0 -4 29 29" fill="none" xmlns="http://www.w3.org/2000/svg">
<path d="M10.1222 20.3835C8.10227 20.3835 6.36364 19.9744 4.90625 19.1562C3.45739 18.3295 2.34091 17.1619 1.55682 15.6534C0.772727 14.1364 0.380682 12.3423 0.380682 10.2713C0.380682 8.25142 0.772727 6.47869 1.55682 4.95312C2.34091 3.42756 3.4446 2.23864 4.8679 1.38636C6.29972 0.534091 7.97869 0.107955 9.90483 0.107955C11.2003 0.107955 12.4063 0.316761 13.5227 0.734375C14.6477 1.14347 15.6278 1.76136 16.4631 2.58807C17.3068 3.41477 17.9631 4.45455 18.4318 5.70739C18.9006 6.9517 19.1349 8.40909 19.1349 10.0795V11.5753H2.55398V8.20028H14.0085C14.0085 7.41619 13.8381 6.72159 13.4972 6.11648C13.1563 5.51136 12.6832 5.03835 12.0781 4.69744C11.4815 4.34801 10.7869 4.1733 9.99432 4.1733C9.16761 4.1733 8.43466 4.36506 7.79545 4.74858C7.16477 5.12358 6.67045 5.63068 6.3125 6.26989C5.95455 6.90057 5.77131 7.60369 5.76278 8.37926V11.5881C5.76278 12.5597 5.94176 13.3991 6.29972 14.1065C6.66619 14.8139 7.18182 15.3594 7.84659 15.7429C8.51136 16.1264 9.29972 16.3182 10.2116 16.3182C10.8168 16.3182 11.3707 16.233 11.8736 16.0625C12.3764 15.892 12.8068 15.6364 13.1648 15.2955C13.5227 14.9545 13.7955 14.5369 13.983 14.0426L19.0199 14.375C18.7642 15.5852 18.2401 16.642 17.4474 17.5455C16.6634 18.4403 15.6491 19.1392 14.4048 19.642C13.169 20.1364 11.7415 20.3835 10.1222 20.3835ZM25.8722 20.3324C25.0284 20.3324 24.304 20.0341 23.6989 19.4375C23.1023 18.8324 22.804 18.108 22.804 17.2642C22.804 16.429 23.1023 15.7131 23.6989 15.1165C24.304 14.5199 25.0284 14.2216 25.8722 14.2216C26.6903 14.2216 27.4063 14.5199 28.0199 15.1165C28.6335 15.7131 28.9403 16.429 28.9403 17.2642C28.9403 17.8267 28.7955 18.3423 28.5057 18.8111C28.2244 19.2713 27.8537 19.642 27.3935 19.9233C26.9332 20.196 26.4261 20.3324 25.8722 20.3324Z" fill="black"/>
</svg>
